# xmcd
#
# Track frame offsets:
#       150
#       18902
#       38738
#       55975
#       85449
#       106997
#       139846
#       169366
#       182208
#       197929
#       218957
#       248074
#       270878
#
# Disc length: 3825 seconds
#
# Revision: 1
# Processed by: cddbd v1.5.1PL2 Copyright (c) Steve Scherf et al.
# Submitted via: MusiCat 1.1
#
DISCID=b90eef0d
DTITLE=Jim White - No such place
DYEAR=1900
DGENRE=
TTITLE0=Handcuffed to a fence in Mississippi
TTITLE1=The wound that never heals
TTITLE2=Corvair
TTITLE3=The worng kind of love
TTITLE4=10 miles to go on a 9 mile road
TTITLE5=Christmas day
TTITLE6=Bound to forget
TTITLE7=God was drunk when he made me
TTITLE8=King of the road
TTITLE9=Ghost-toewn of my brain
TTITLE10=Hey! You going mey way???
TTITLE11=The love that never fails
TTITLE12=CorvairReprise
EXTD=\n\n
EXTT0=
EXTT1=
EXTT2=
EXTT3=
EXTT4=
EXTT5=
EXTT6=
EXTT7=
EXTT8=
EXTT9=
EXTT10=
EXTT11=
EXTT12=
PLAYORDER=
